<?xml version="1.0" encoding="iso-8859-1"?>
<!-- Generator: Adobe Illustrator 19.0.0, SVG Export Plug-In . SVG Version: 6.00 Build 0)  -->
<svg version="1.1" id="Layer_1" xmlns="http://www.w3.org/2000/svg" xmlns:xlink="http://www.w3.org/1999/xlink" x="0px" y="0px"
	 viewBox="0 0 512 512" style="enable-background:new 0 0 512 512;" xml:space="preserve">
<g>
	<g>
		<path d="M437.02,74.981C388.669,26.629,324.381,0,256.001,0C187.621,0,123.334,26.629,74.981,74.981S0.001,187.62,0.001,256
			s26.629,132.667,74.981,181.019S187.621,512,256.001,512c68.38,0,132.668-26.629,181.019-74.981
			c48.352-48.352,74.98-112.64,74.98-181.019C512.001,187.62,485.372,123.333,437.02,74.981z M351.393,36.034
			c27.294,11.844,52.391,28.84,74.063,50.511c19.328,19.328,34.933,41.382,46.487,65.287l-120.55,120.55V36.034z M256.001,16.354
			c27.334,0,53.965,4.561,79.039,13.294v170.479L167.918,33.007C195.591,22.082,225.354,16.354,256.001,16.354z M335.039,223.257
			v65.48l-46.303,46.301h-65.48l-46.302-46.303v-65.481l46.302-46.302h65.48L335.039,223.257z M86.545,86.544
			c19.329-19.329,41.385-34.935,65.293-46.49L272.383,160.6H36.037C47.882,133.309,64.876,108.214,86.545,86.544z M16.355,256
			c0-27.337,4.562-53.97,13.297-79.047h170.477L33.005,344.078C22.082,316.406,16.355,286.645,16.355,256z M160.6,475.962
			c-27.292-11.844-52.385-28.839-74.055-50.508c-19.33-19.33-34.938-41.389-46.492-65.297L160.6,239.61V475.962z M256.001,495.646
			c-27.337,0-53.97-4.562-79.047-13.297V311.864l167.129,167.129C316.409,489.918,286.647,495.646,256.001,495.646z
			 M425.456,425.455c-19.329,19.329-41.386,34.935-65.294,46.49L239.611,351.393h236.357
			C464.123,378.687,447.128,403.783,425.456,425.455z M311.866,335.039l167.127-167.127c10.926,27.675,16.654,57.44,16.654,88.088
			c0,27.335-4.561,53.965-13.294,79.039H311.866z"/>
	</g>
</g>
<g>
</g>
<g>
</g>
<g>
</g>
<g>
</g>
<g>
</g>
<g>
</g>
<g>
</g>
<g>
</g>
<g>
</g>
<g>
</g>
<g>
</g>
<g>
</g>
<g>
</g>
<g>
</g>
<g>
</g>
</svg>
