<svg id="Capa_1" data-name="Capa 1" xmlns="http://www.w3.org/2000/svg" viewBox="0 0 512 418.91"><defs><style>.cls-1{fill:#e0e0e0;}</style></defs><title>volume</title><path class="cls-1" d="M225.69,47.5a11.6,11.6,0,0,0-12.59,2.23L93.26,162.91H11.64A11.63,11.63,0,0,0,0,174.55V337.46a11.62,11.62,0,0,0,11.64,11.63H93.26L213.1,462.28a11.61,11.61,0,0,0,8,3.18,11.37,11.37,0,0,0,4.6-1,11.6,11.6,0,0,0,7-10.68V58.18A11.61,11.61,0,0,0,225.69,47.5Z" transform="translate(0 -46.54)"/><path class="cls-1" d="M286.31,190.78l-16.58,16.58c-3.82,3.83-4.84,10-1.65,14.37a58.09,58.09,0,0,1,0,68.55c-3.19,4.36-2.17,10.54,1.65,14.36l16.58,16.58a11.83,11.83,0,0,0,17.76-1.39,104.54,104.54,0,0,0,0-127.66A11.83,11.83,0,0,0,286.31,190.78Z" transform="translate(0 -46.54)"/><path class="cls-1" d="M369.19,125a11.63,11.63,0,0,0-16.83-.25L335.89,141.2a11.73,11.73,0,0,0-.29,16.06,151,151,0,0,1,0,197.49,11.7,11.7,0,0,0,.29,16.05l16.47,16.47a11.63,11.63,0,0,0,16.83-.26,197.46,197.46,0,0,0,0-262Z" transform="translate(0 -46.54)"/><path class="cls-1" d="M435,59.06a11.71,11.71,0,0,0-16.81-.17L401.72,75.37a11.52,11.52,0,0,0-.18,16,243.94,243.94,0,0,1,0,329.22,11.52,11.52,0,0,0,.18,16l16.49,16.49a11.71,11.71,0,0,0,16.81-.18,290.41,290.41,0,0,0,0-393.88Z" transform="translate(0 -46.54)"/></svg>